<svg xmlns="http://www.w3.org/2000/svg" width="158" height="62.414" viewBox="0 0 158 62.414">
  <g id="alert-vector" transform="translate(-710 -351.413)">
    <g id="Group_1628" data-name="Group 1628" transform="translate(710 357.23)">
      <g id="Background">
        <path id="Path_9855" data-name="Path 9855" d="M857.759,407.774a5.12,5.12,0,1,1,5.12,5.12A5.12,5.12,0,0,1,857.759,407.774Zm-114.111,5.12a5.12,5.12,0,0,1,0-10.241H715.12a5.12,5.12,0,0,1,0-10.241H744.38a5.12,5.12,0,0,0,0-10.241H726.093a5.12,5.12,0,0,1,0-10.241h29.259a5.12,5.12,0,1,1,0-10.241h41.694a5.12,5.12,0,1,1,0,10.241h46.815a5.12,5.12,0,0,1,0,10.241h16.093a5.12,5.12,0,1,1,0,10.241h-13.9a5.12,5.12,0,0,0,0,10.241h4.389a5.12,5.12,0,0,1,0,10.241Z" transform="translate(-710 -361.691)" fill="#f3f7ff"/>
      </g>
      <g id="Oval" transform="translate(20.481 8.778)">
        <path id="Path_9856" data-name="Path 9856" d="M740.926,379.543a2.926,2.926,0,1,1,2.926-2.926A2.929,2.929,0,0,1,740.926,379.543Zm0-4.389a1.463,1.463,0,1,0,1.463,1.463A1.464,1.464,0,0,0,740.926,375.154Z" transform="translate(-738 -373.691)" fill="#1c73d4"/>
      </g>
      <g id="Oval-2" data-name="Oval" transform="translate(120.481 28.778)">
        <path id="Path_9856-2" data-name="Path 9856" d="M740.926,379.543a2.926,2.926,0,1,1,2.926-2.926A2.929,2.929,0,0,1,740.926,379.543Zm0-4.389a1.463,1.463,0,1,0,1.463,1.463A1.464,1.464,0,0,0,740.926,375.154Z" transform="translate(-738 -373.691)" fill="#1c73d4"/>
      </g>
      <g id="Oval-2-2" data-name="Oval-2" transform="translate(119.231 43.889)">
        <circle id="Ellipse_714" data-name="Ellipse 714" cx="2.194" cy="2.194" r="2.194" fill="#e1ebff"/>
      </g>
      <g id="Oval-3" transform="translate(132.398 5.12)">
        <circle id="Ellipse_715" data-name="Ellipse 715" cx="2.194" cy="2.194" r="2.194" fill="#e1ebff"/>
      </g>
    </g>
    <g id="Line" transform="matrix(0.985, -0.174, 0.174, 0.985, 761.968, 374.007)">
      <path id="Path_9879" data-name="Path 9879" d="M779.922,377.3a.86.86,0,0,1-.8-1.179,24.518,24.518,0,0,1,1.674-3.393.86.86,0,0,1,1.479.877,22.886,22.886,0,0,0-1.558,3.155A.859.859,0,0,1,779.922,377.3Z" transform="translate(-779.062 -372.311)" fill="#1c73d4"/>
    </g>
    <g id="Line-2" transform="matrix(0.985, -0.174, 0.174, 0.985, 762.988, 361.473)">
      <path id="Path_9880" data-name="Path 9880" d="M784.548,366.627a.86.86,0,0,1-.679-1.386,30.929,30.929,0,0,1,11.378-9.088.86.86,0,0,1,.725,1.559,29.193,29.193,0,0,0-10.742,8.581A.859.859,0,0,1,784.548,366.627Z" transform="translate(-783.689 -356.073)" fill="#1c73d4"/>
    </g>
    <g id="Group_3363" data-name="Group 3363" transform="translate(135.001 -115.587)">
      <path id="Path_11078" data-name="Path 11078" d="M652.205,529.414a31.207,31.207,0,0,1,0-62.414h0a31.207,31.207,0,0,1,0,62.414Zm0-60.928a29.719,29.719,0,1,0,21.016,8.7A29.754,29.754,0,0,0,652.205,468.486Z" fill="#3f9eff"/>
      <path id="Path_11079" data-name="Path 11079" d="M652.205,529.414a31.207,31.207,0,0,1,0-62.414h0a31.207,31.207,0,0,1,0,62.414Zm0-60.928a29.719,29.719,0,1,0,21.016,8.7A29.754,29.754,0,0,0,652.205,468.486Z" fill="#1c73d4"/>
      <path id="Path_11080" data-name="Path 11080" d="M653.877,524a4.348,4.348,0,1,1,4.348-4.348A4.354,4.354,0,0,1,653.877,524Zm0-7.131a2.783,2.783,0,1,0,2.783,2.783A2.786,2.786,0,0,0,653.873,516.869Z" transform="translate(-1.667 -3.334)" fill="#1c73d4"/>
      <path id="Rectangle_4088" data-name="Rectangle 4088" d="M-.8.482,2.963-1.287,8-.476,6.721,29.517l-3.759.958L-.059,27.969Z" transform="translate(648.551 478.143)" fill="#e1ebff"/>
      <path id="Path_11081" data-name="Path 11081" d="M653.87,510.578a4.543,4.543,0,0,1-4.532-4.3l-1.366-24.567c-.005-.078-.007-.157-.007-.236a4.548,4.548,0,0,1,4.537-4.561h2.744c.079,0,.157,0,.235.007a4.546,4.546,0,0,1,4.3,4.788l-1.365,24.567a4.537,4.537,0,0,1-4.293,4.3C654.036,510.575,653.953,510.578,653.87,510.578Zm-1.533-32.094a2.985,2.985,0,0,0-2.811,3.14l1.373,24.568A2.979,2.979,0,0,0,653.713,509l.166.005a2.98,2.98,0,0,0,2.975-2.818l1.366-24.567,0-.164a2.982,2.982,0,0,0-2.977-2.98H652.5Z" transform="translate(-1.667 -1.03)" fill="#1c73d4"/>
    </g>
  </g>
</svg>
