<svg xmlns="http://www.w3.org/2000/svg" width="158" height="72.417" viewBox="0 0 158 72.417">
  <g id="block-vector" transform="translate(-710 -348.911)">
    <g id="Group_1628" data-name="Group 1628" transform="translate(710 357.23)">
      <g id="Background">
        <path id="Path_9855" data-name="Path 9855" d="M857.759,407.774a5.12,5.12,0,1,1,5.12,5.12A5.12,5.12,0,0,1,857.759,407.774Zm-114.111,5.12a5.12,5.12,0,0,1,0-10.241H715.12a5.12,5.12,0,0,1,0-10.241H744.38a5.12,5.12,0,0,0,0-10.241H726.093a5.12,5.12,0,0,1,0-10.241h29.259a5.12,5.12,0,1,1,0-10.241h41.694a5.12,5.12,0,1,1,0,10.241h46.815a5.12,5.12,0,0,1,0,10.241h16.093a5.12,5.12,0,1,1,0,10.241h-13.9a5.12,5.12,0,0,0,0,10.241h4.389a5.12,5.12,0,0,1,0,10.241Z" transform="translate(-710 -361.691)" fill="#f3f7ff"/>
      </g>
      <g id="Oval-2" transform="translate(119.231 43.889)">
        <circle id="Ellipse_714" data-name="Ellipse 714" cx="2.194" cy="2.194" r="2.194" fill="#e1ebff"/>
      </g>
      <g id="Line_4" data-name="Line 4" transform="translate(17.983 7.901)">
        <path id="Path_9858" data-name="Path 9858" d="M749.457,414.255a.911.911,0,0,1-.647-.268l-1.548-1.548-1.548,1.548a.914.914,0,0,1-1.293-1.293l1.548-1.548-1.548-1.548a.914.914,0,1,1,1.293-1.293l1.548,1.549,1.548-1.549A.914.914,0,0,1,750.1,409.6l-1.549,1.548,1.549,1.548a.914.914,0,0,1-.647,1.561Z" transform="translate(-744.154 -408.037)" fill="#1c73d4"/>
      </g>
      <g id="Oval-3" transform="translate(132.398 5.12)">
        <circle id="Ellipse_715" data-name="Ellipse 715" cx="2.194" cy="2.194" r="2.194" fill="#e1ebff"/>
      </g>
    </g>
    <g id="Shape-2" transform="translate(770.699 374.651)">
      <path id="Path_9877" data-name="Path 9877" d="M823.131,386.376a4.126,4.126,0,1,1,4.126,4.126A4.126,4.126,0,0,1,823.131,386.376Zm-13.066,0a4.126,4.126,0,1,1,4.126,4.126A4.126,4.126,0,0,1,810.066,386.376Zm-13.066,0a4.126,4.126,0,1,1,4.126,4.126A4.126,4.126,0,0,1,797,386.376Z" transform="translate(-796.14 -381.39)" fill="#e1ebff"/>
      <path id="Path_9878" data-name="Path 9878" d="M826.867,390.971a4.986,4.986,0,1,1,4.986-4.986A4.991,4.991,0,0,1,826.867,390.971Zm0-8.252a3.266,3.266,0,1,0,3.266,3.266A3.27,3.27,0,0,0,826.867,382.719ZM813.8,390.971a4.986,4.986,0,1,1,4.986-4.986A4.991,4.991,0,0,1,813.8,390.971Zm0-8.252a3.266,3.266,0,1,0,3.266,3.266A3.27,3.27,0,0,0,813.8,382.719Zm-13.066,8.252a4.986,4.986,0,1,1,4.986-4.986A4.991,4.991,0,0,1,800.736,390.971Zm0-8.252A3.266,3.266,0,1,0,804,385.986,3.27,3.27,0,0,0,800.736,382.719Z" transform="translate(-795.75 -381)" fill="#3f9eff"/>
    </g>
    <g id="Line" transform="translate(759.224 368.675)">
      <path id="Path_9879" data-name="Path 9879" d="M779.922,377.3a.86.86,0,0,1-.8-1.179,24.518,24.518,0,0,1,1.674-3.393.86.86,0,0,1,1.479.877,22.886,22.886,0,0,0-1.558,3.155A.859.859,0,0,1,779.922,377.3Z" transform="translate(-779.062 -372.311)" fill="#3f9eff"/>
    </g>
    <g id="Line-2" transform="translate(762.405 356.51)">
      <path id="Path_9880" data-name="Path 9880" d="M784.548,366.627a.86.86,0,0,1-.679-1.386,30.929,30.929,0,0,1,11.378-9.088.86.86,0,0,1,.725,1.559,29.193,29.193,0,0,0-10.742,8.581A.859.859,0,0,1,784.548,366.627Z" transform="translate(-783.689 -356.073)" fill="#3f9eff"/>
    </g>
    <g id="unsuccessful-payment" transform="translate(50 62.247)">
      <g id="Shape" transform="translate(704.566 286.664)">
        <path id="Path_9906" data-name="Path 9906" d="M757.858,344.37a24.969,24.969,0,0,1-3.751,2.987l4.82-4.1C758.6,343.627,758.241,344,757.858,344.37Zm2.892-3.215h0l-8.973,7.512a30.582,30.582,0,0,1-12.03,3.711,31.183,31.183,0,0,1-14.7-2.187,30.866,30.866,0,0,1-10.518-7.15,31.213,31.213,0,0,1-4.846-6.533,30.875,30.875,0,0,1,43.443-41.11,31.391,31.391,0,0,1,9.063,8.695A30.842,30.842,0,0,1,760.75,341.155Z" transform="translate(-705.006 -289.849)" fill="#fff"/>
        <path id="Path_9907" data-name="Path 9907" d="M736.436,352.868a32.125,32.125,0,0,1-12.135-2.381,31.467,31.467,0,0,1-10.793-7.336,31.692,31.692,0,0,1,7.363-49.771,31.677,31.677,0,0,1,32.241.89,31.817,31.817,0,0,1,7.821,46.946,39.354,39.354,0,0,1-9.207,7.707,31.194,31.194,0,0,1-12.346,3.808C738.4,352.823,737.418,352.868,736.436,352.868Zm-.2-61.857a30.071,30.071,0,0,0-26.295,44.66,30.406,30.406,0,0,0,4.721,6.364A29.874,29.874,0,0,0,724.911,349a30.5,30.5,0,0,0,14.321,2.131,29.6,29.6,0,0,0,11.648-3.576s2.917-1.948,5.131-3.8a35.254,35.254,0,0,0,3.724-3.611,30.2,30.2,0,0,0-23.5-49.131Z" transform="translate(-704.566 -289.403)" fill="#1c73d4"/>
      </g>
      <path id="Path_9908" data-name="Path 9908" d="M800.858,281.725v3.86a.8.8,0,1,1-1.608,0v-3.86" transform="translate(-6.774 30)" fill="#1c73d4"/>
      <g id="Line-2-2" data-name="Line-2" transform="translate(792.476 319.927)">
        <path id="Path_9909" data-name="Path 9909" d="M800.054,299.943a.8.8,0,0,1-.8-.8v-3.86a.8.8,0,1,1,1.608,0v3.86A.8.8,0,0,1,800.054,299.943Z" transform="translate(-799.25 -294.475)" fill="#1c73d4"/>
      </g>
      <g id="Line-3" transform="translate(786.043 317.354)">
        <path id="Path_9910" data-name="Path 9910" d="M793.914,292.083h-3.86a.8.8,0,0,1,0-1.608h3.86a.8.8,0,1,1,0,1.608Z" transform="translate(-789.25 -290.475)" fill="#1c73d4"/>
      </g>
      <g id="Line-4" transform="translate(795.049 317.354)">
        <path id="Path_9911" data-name="Path 9911" d="M807.914,292.083h-3.86a.8.8,0,0,1,0-1.608h3.86a.8.8,0,1,1,0,1.608Z" transform="translate(-803.25 -290.475)" fill="#1c73d4"/>
      </g>
      <g id="bling-2" transform="translate(706.936 347.18)">
        <g id="Line-5" transform="translate(5.146)">
          <path id="Path_9912" data-name="Path 9912" d="M717.054,387.656a.8.8,0,0,1-.8-.8v-2.573a.8.8,0,1,1,1.608,0v2.573A.8.8,0,0,1,717.054,387.656Z" transform="translate(-716.25 -383.475)" fill="#1c73d4"/>
        </g>
        <g id="Line-6" transform="translate(5.146 7.72)">
          <path id="Path_9913" data-name="Path 9913" d="M717.054,399.656a.8.8,0,0,1-.8-.8v-2.573a.8.8,0,1,1,1.608,0v2.573A.8.8,0,0,1,717.054,399.656Z" transform="translate(-716.25 -395.475)" fill="#1c73d4"/>
        </g>
        <g id="Line-7" transform="translate(0 5.146)">
          <path id="Path_9914" data-name="Path 9914" d="M711.627,393.083h-2.573a.8.8,0,0,1,0-1.608h2.573a.8.8,0,0,1,0,1.608Z" transform="translate(-708.25 -391.475)" fill="#1c73d4"/>
        </g>
        <g id="Line-8" transform="translate(7.72 5.146)">
          <path id="Path_9915" data-name="Path 9915" d="M723.627,393.083h-2.573a.8.8,0,0,1,0-1.608h2.573a.8.8,0,0,1,0,1.608Z" transform="translate(-720.25 -391.475)" fill="#1c73d4"/>
        </g>
      </g>
      <g id="Shape-2-2" data-name="Shape-2" transform="translate(714.873 292.299)">
        <path id="Path_9916" data-name="Path 9916" d="M732.99,299.413a26.83,26.83,0,0,0-9.233,5.85,27.206,27.206,0,0,0-1.918,2.056" transform="translate(-721.034 -298.608)" fill="#1c73d4"/>
        <path id="Path_9917" data-name="Path 9917" d="M721.392,307.676a.8.8,0,0,1-.615-1.322,28.123,28.123,0,0,1,1.976-2.117,27.473,27.473,0,0,1,9.508-6.023.8.8,0,1,1,.566,1.505,25.882,25.882,0,0,0-8.956,5.674,26.464,26.464,0,0,0-1.863,2A.8.8,0,0,1,721.392,307.676Z" transform="translate(-720.588 -298.162)" fill="#1c73d4"/>
      </g>
      <g id="Union_3" data-name="Union 3" transform="translate(725.844 308.35)">
        <path id="Path_9918" data-name="Path 9918" d="M754.356,342.611l-6.18-6.18-6.18,6.18a1.966,1.966,0,0,1-2.78-2.782l6.176-6.179-6.176-6.179A1.966,1.966,0,0,1,742,324.69l6.18,6.18,6.18-6.18a1.966,1.966,0,0,1,2.78,0h0a1.966,1.966,0,0,1,0,2.78h0l-6.18,6.18,6.18,6.18a1.966,1.966,0,0,1,0,2.78h0a1.958,1.958,0,0,1-2.781,0Z" transform="translate(-737.998 -323.471)" fill="#e1ebff"/>
        <path id="Path_9919" data-name="Path 9919" d="M755.39,343.478a2.619,2.619,0,0,1-1.846-.77l-5.723-5.724-5.725,5.725a2.61,2.61,0,0,1-3.69-3.691l5.721-5.724-5.721-5.724a2.61,2.61,0,0,1,3.689-3.692l5.725,5.725,5.725-5.725a2.59,2.59,0,0,1,1.844-.765h0a2.61,2.61,0,0,1,1.846,4.455l-5.725,5.726,5.725,5.725a2.613,2.613,0,0,1-1.846,4.458Zm-7.57-8.313,6.636,6.637a1.355,1.355,0,0,0,1.868,0,1.322,1.322,0,0,0,0-1.873l-6.634-6.635,6.634-6.635a1.324,1.324,0,0,0-.936-2.259h0a1.314,1.314,0,0,0-.935.388l-6.634,6.634-6.634-6.634a1.323,1.323,0,0,0-1.871,1.872l6.63,6.634-6.63,6.634a1.323,1.323,0,1,0,1.87,1.872Z" transform="translate(-737.642 -323.114)" fill="#1c73d4"/>
      </g>
    </g>
  </g>
</svg>
