<svg xmlns="http://www.w3.org/2000/svg" width="137.158" height="60.078" viewBox="0 0 137.158 60.078">
  <g id="calendar-error-vector" transform="translate(-710 -345.078)">
    <g id="Group_1628" data-name="Group 1628" transform="translate(710 355.627)">
      <g id="Background">
        <path id="Path_9855" data-name="Path 9855" d="M838.268,401.7a4.445,4.445,0,1,1,4.445,4.445A4.445,4.445,0,0,1,838.268,401.7ZM739.21,406.14a4.445,4.445,0,0,1,0-8.89H714.445a4.445,4.445,0,0,1,0-8.89h25.4a4.445,4.445,0,0,0,0-8.89H723.97a4.445,4.445,0,1,1,0-8.89h25.4a4.445,4.445,0,0,1,0-8.89h36.195a4.445,4.445,0,0,1,0,8.89H826.2a4.445,4.445,0,1,1,0,8.89h13.97a4.445,4.445,0,1,1,0,8.89H828.108a4.445,4.445,0,0,0,0,8.89h3.81a4.445,4.445,0,0,1,0,8.89Z" transform="translate(-710 -361.691)" fill="#f3f7ff"/>
      </g>
      <g id="Oval" transform="translate(17.78 7.62)">
        <path id="Path_9856" data-name="Path 9856" d="M740.54,378.771a2.54,2.54,0,1,1,2.54-2.54A2.543,2.543,0,0,1,740.54,378.771Zm0-3.81a1.27,1.27,0,1,0,1.27,1.27A1.271,1.271,0,0,0,740.54,374.961Z" transform="translate(-738 -373.691)" fill="#1c73d4"/>
      </g>
      <g id="Oval-2" transform="translate(103.504 38.099)">
        <circle id="Ellipse_714" data-name="Ellipse 714" cx="1.905" cy="1.905" r="1.905" fill="#e1ebff"/>
      </g>
      <g id="Line_5" data-name="Line 5" transform="translate(113.986 18.737)">
        <path id="Path_9857" data-name="Path 9857" d="M890.382,398.094a.794.794,0,0,1-.561-1.356l2.054-2.05-2.134-2.134a.794.794,0,0,1,1.123-1.123L893,393.566l2.13-2.134a.794.794,0,1,1,1.123,1.122l-2.131,2.135,2.05,2.05a.794.794,0,1,1-1.123,1.123l-2.05-2.05-2.054,2.051A.79.79,0,0,1,890.382,398.094Z" transform="translate(-889.508 -391.199)" fill="#1c73d4"/>
      </g>
      <g id="Line_4" data-name="Line 4" transform="translate(21.688 29.429)">
        <path id="Path_9858" data-name="Path 9858" d="M748.758,413.434a.791.791,0,0,1-.561-.232l-1.344-1.344-1.344,1.344a.794.794,0,0,1-1.123-1.123l1.344-1.344-1.344-1.344a.794.794,0,0,1,1.123-1.123l1.344,1.344,1.344-1.344a.794.794,0,0,1,1.123,1.123l-1.344,1.344,1.344,1.344a.794.794,0,0,1-.561,1.355Z" transform="translate(-744.154 -408.037)" fill="#1c73d4"/>
      </g>
      <g id="Oval-3" transform="translate(114.933 4.445)">
        <circle id="Ellipse_715" data-name="Ellipse 715" cx="1.905" cy="1.905" r="1.905" fill="#e1ebff"/>
      </g>
    </g>
    <g id="calendar" transform="translate(748.753 345.078)">
      <g id="Rectangle_3695" data-name="Rectangle 3695" transform="translate(0.299 8.961)">
        <path id="Path_9859" data-name="Path 9859" d="M771.5,359.191h60.959v25.4a7.62,7.62,0,0,1-7.62,7.62H779.755a8.255,8.255,0,0,1-8.255-8.255V359.191Z" transform="translate(-771.5 -359.191)" fill="#fff"/>
      </g>
      <g id="Group_1641" data-name="Group 1641" transform="translate(0.3 0.854)">
        <g id="Group_1640" data-name="Group 1640" transform="translate(21.134)">
          <g id="Path_9812" data-name="Path 9812">
            <path id="Path_9860" data-name="Path 9860" d="M807.909,346.423a3.125,3.125,0,0,0-3.125,3.125v4.263a3.125,3.125,0,0,0,6.251,0v-4.263A3.126,3.126,0,0,0,807.909,346.423Z" transform="translate(-804.784 -346.423)" fill="#f3f7ff"/>
          </g>
          <g id="Path_9813" data-name="Path 9813" transform="translate(12.564)">
            <path id="Path_9861" data-name="Path 9861" d="M827.695,346.423a3.126,3.126,0,0,0-3.125,3.125v4.263a3.125,3.125,0,0,0,6.251,0v-4.263a3.126,3.126,0,0,0-3.125-3.125Z" transform="translate(-824.57 -346.423)" fill="#f3f7ff"/>
          </g>
          <g id="Path_9814" data-name="Path 9814" transform="translate(25.124)">
            <path id="Path_9862" data-name="Path 9862" d="M847.475,346.423a3.126,3.126,0,0,1,3.125,3.125v4.263a3.125,3.125,0,0,1-6.251,0v-4.263A3.125,3.125,0,0,1,847.475,346.423Z" transform="translate(-844.35 -346.423)" fill="#f3f7ff"/>
          </g>
        </g>
        <g id="Path_9816" data-name="Path 9816" transform="translate(8.572)">
          <path id="Path_9863" data-name="Path 9863" d="M788.125,346.423A3.125,3.125,0,0,0,785,349.548v4.263a3.125,3.125,0,0,0,6.251,0v-4.263A3.126,3.126,0,0,0,788.125,346.423Z" transform="translate(-785 -346.423)" fill="#f3f7ff"/>
        </g>
        <g id="Rectangle_3694" data-name="Rectangle 3694" transform="translate(0 18.903)">
          <path id="Path_9864" data-name="Path 9864" d="M771.5,376.192H832.46v31.75a7.62,7.62,0,0,1-7.62,7.62H779.756a8.255,8.255,0,0,1-8.255-8.255V376.192Z" transform="translate(-771.501 -376.192)" fill="#fff"/>
        </g>
      </g>
      <g id="Group_1642" data-name="Group 1642">
        <g id="Rectangle_3693" data-name="Rectangle 3693" transform="translate(0.299 19.756)">
          <path id="Path_9865" data-name="Path 9865" d="M771.5,376.191h60.959v31.75a7.62,7.62,0,0,1-7.62,7.62H779.755a8.255,8.255,0,0,1-8.255-8.255V376.191Z" transform="translate(-771.5 -376.191)" fill="#f3f7ff"/>
        </g>
        <g id="Path_9818" data-name="Path 9818" transform="translate(0 32.355)">
          <path id="Path_9866" data-name="Path 9866" d="M831.807,396.032a.9.9,0,0,0-.9.9h0V413.7a8.255,8.255,0,0,1-8.247,8.247H781.082a8.255,8.255,0,0,1-8.246-8.245v-6.246a.9.9,0,0,0-1.807,0h0V413.7a10.064,10.064,0,0,0,10.053,10.053h41.575A10.065,10.065,0,0,0,832.711,413.7V396.938a.9.9,0,0,0-.9-.906Z" transform="translate(-771.029 -396.032)" fill="#1c73d4"/>
        </g>
        <g id="Path_9819" data-name="Path 9819" transform="translate(9.45 25.431)">
          <path id="Path_9867" data-name="Path 9867" d="M785.912,407.357a5.628,5.628,0,0,0,5.622,5.622h24.493a8.724,8.724,0,1,0,12.665-11.968V390.75a5.629,5.629,0,0,0-5.622-5.622H791.533a5.628,5.628,0,0,0-5.622,5.622C785.912,392.837,785.912,405.26,785.912,407.357Zm29.487-4.866h-7.193v-6.875h8.437v5.4a8.8,8.8,0,0,0-1.244,1.475Zm-7.193-8.682v-6.874h8.436v6.874Zm-1.807,0h-8.436v-6.874H806.4Zm0,1.807v6.872h-8.436v-6.873Zm0,8.682v6.874h-8.436V404.3Zm-10.243-1.81h-8.436v-6.873h8.436Zm-8.436,4.866V404.3h8.436v6.874h-4.621a3.819,3.819,0,0,1-3.814-3.812Zm27.111,3.815h-6.624V404.3h6.271a8.747,8.747,0,0,0,.353,6.874Zm14.76-3.852a6.921,6.921,0,1,1-6.921-6.921h0a6.931,6.931,0,0,1,6.922,6.924Zm-11.142-7.64v-4.064h8.436v4.064a8.715,8.715,0,0,0-8.436,0Zm8.436-8.929v3.059h-8.436v-6.872h4.621a3.819,3.819,0,0,1,3.816,3.815Zm-35.351-3.813h4.621v6.874h-8.435V390.75A3.819,3.819,0,0,1,791.533,386.935Z" transform="translate(-785.911 -385.128)" fill="#1c73d4"/>
        </g>
        <g id="Path_9820" data-name="Path 9820" transform="translate(42.588 44.006)">
          <path id="Path_9868" data-name="Path 9868" d="M845.055,414.658a.9.9,0,0,0-1.278,0l-2.062,2.062-2.062-2.062a.9.9,0,0,0-1.3,1.251l.027.027L840.438,418l-2.062,2.062a.9.9,0,0,0,1.278,1.278l2.062-2.062,2.062,2.062a.9.9,0,1,0,1.3-1.251l-.027-.027L842.993,418l2.062-2.062A.9.9,0,0,0,845.055,414.658Z" transform="translate(-838.098 -414.38)" fill="#1c73d4"/>
        </g>
        <g id="Path_9821" data-name="Path 9821">
          <path id="Path_9869" data-name="Path 9869" d="M824.744,349.34v-.283a4.029,4.029,0,0,0-8.057,0v.064h-4.508v-.064a4.029,4.029,0,0,0-8.057,0v.064h-4.508v-.064a4.029,4.029,0,0,0-8.057,0v.064h-4.508v-.064a4.029,4.029,0,0,0-8.057,0v.283a10.072,10.072,0,0,0-7.96,9.832v26.071a.9.9,0,0,0,1.807,0h0V365.521H830.9v9.2a.9.9,0,1,0,1.807,0V359.171A10.073,10.073,0,0,0,824.744,349.34Zm-4.029-2.5a2.222,2.222,0,0,1,2.222,2.223v4.263a2.222,2.222,0,1,1-4.445,0v-4.264a2.222,2.222,0,0,1,2.222-2.222h0Zm-12.563,0a2.223,2.223,0,0,1,2.222,2.223v4.263a2.222,2.222,0,1,1-4.445,0v-4.264a2.222,2.222,0,0,1,2.222-2.222h0Zm-14.785,2.223a2.222,2.222,0,1,1,4.445,0,32.1,32.1,0,0,1-.175,5.127,2.223,2.223,0,0,1-4.094,0,31.919,31.919,0,0,1-.176-5.128Zm-12.563,0a2.222,2.222,0,1,1,4.445,0v4.263a2.222,2.222,0,1,1-4.445,0v-4.263Zm50.1,14.657H772.836v-4.544A8.265,8.265,0,0,1,779,351.194v2.127a4.029,4.029,0,1,0,8.057.1v-2.5h4.508v2.4a4.029,4.029,0,0,0,7.81,1.384c.386-1.053.19-1.718.245-3.779h4.508v2.4a4.029,4.029,0,0,0,8.057,0v-2.4h4.508v2.4a4.029,4.029,0,0,0,8.057,0v-2.127a8.265,8.265,0,0,1,6.159,7.977Z" transform="translate(-771.029 -345.079)" fill="#1c73d4"/>
        </g>
      </g>
    </g>
  </g>
</svg>
