<svg xmlns="http://www.w3.org/2000/svg" width="158" height="69.561" viewBox="0 0 158 69.561">
  <g id="logout-vector" transform="translate(-710 -347.829)">
    <g id="Group_1628" data-name="Group 1628" transform="translate(710 357.23)">
      <g id="Background">
        <path id="Path_9855" data-name="Path 9855" d="M857.759,407.774a5.12,5.12,0,1,1,5.12,5.12A5.12,5.12,0,0,1,857.759,407.774Zm-114.111,5.12a5.12,5.12,0,0,1,0-10.241H715.12a5.12,5.12,0,0,1,0-10.241H744.38a5.12,5.12,0,0,0,0-10.241H726.093a5.12,5.12,0,0,1,0-10.241h29.259a5.12,5.12,0,1,1,0-10.241h41.694a5.12,5.12,0,1,1,0,10.241h46.815a5.12,5.12,0,0,1,0,10.241h16.093a5.12,5.12,0,1,1,0,10.241h-13.9a5.12,5.12,0,0,0,0,10.241h4.389a5.12,5.12,0,0,1,0,10.241Z" transform="translate(-710 -361.691)" fill="#f3f0f7"/>
      </g>
      <g id="Oval" transform="translate(20.481 8.778)">
        <path id="Path_9856" data-name="Path 9856" d="M740.926,379.543a2.926,2.926,0,1,1,2.926-2.926A2.929,2.929,0,0,1,740.926,379.543Zm0-4.389a1.463,1.463,0,1,0,1.463,1.463A1.464,1.464,0,0,0,740.926,375.154Z" transform="translate(-738 -373.691)" fill="#a340a1"/>
      </g>
      <g id="Oval-2" transform="translate(119.231 43.889)">
        <circle id="Ellipse_714" data-name="Ellipse 714" cx="2.194" cy="2.194" r="2.194" fill="#a340a1"/>
      </g>
      <g id="Line_5" data-name="Line 5" transform="translate(131.307 21.584)">
        <path id="Path_9857" data-name="Path 9857" d="M890.515,399.141a.915.915,0,0,1-.647-1.562l2.366-2.361-2.458-2.458a.914.914,0,1,1,1.293-1.293l2.458,2.458,2.454-2.458a.915.915,0,1,1,1.294,1.293l-2.455,2.459,2.362,2.362a.914.914,0,0,1-1.293,1.293l-2.362-2.362-2.366,2.363A.91.91,0,0,1,890.515,399.141Z" transform="translate(-889.508 -391.199)" fill="#a340a1"/>
      </g>
      <g id="Line_4" data-name="Line 4" transform="translate(24.983 33.901)">
        <path id="Path_9858" data-name="Path 9858" d="M749.457,414.255a.911.911,0,0,1-.647-.268l-1.548-1.548-1.548,1.548a.914.914,0,0,1-1.293-1.293l1.548-1.548-1.548-1.548a.914.914,0,1,1,1.293-1.293l1.548,1.549,1.548-1.549A.914.914,0,0,1,750.1,409.6l-1.549,1.548,1.549,1.548a.914.914,0,0,1-.647,1.561Z" transform="translate(-744.154 -408.037)" fill="#a340a1"/>
      </g>
      <g id="Oval-3" transform="translate(132.398 5.12)">
        <circle id="Ellipse_715" data-name="Ellipse 715" cx="2.194" cy="2.194" r="2.194" fill="#a340a1"/>
      </g>
    </g>
    <g id="logout" transform="translate(99 -147.919)">
      <path id="Path_11091" data-name="Path 11091" d="M698.656,552.915v-40.24a4.454,4.454,0,0,0-2.367-3.95L672.32,497.733h37.465a2.47,2.47,0,0,1,2.467,2.468v50.248a2.469,2.469,0,0,1-2.464,2.466Z" fill="#a340a1"/>
      <path id="Path_11092" data-name="Path 11092" d="M694.182,565.059a4.194,4.194,0,0,1-1.533-.291l-26.021-9.282A4.168,4.168,0,0,1,664,551.593V500.2a4.2,4.2,0,0,1,4.2-4.2h41.584a4.2,4.2,0,0,1,4.2,4.2v23.523h18.293l-7.4-7.424a.721.721,0,0,1,.053-.893.734.734,0,0,1,1.034-.083l8.6,8.613a.732.732,0,0,1,0,1.03l-8.661,8.662a1.247,1.247,0,0,1-.133.137.761.761,0,0,1-.5.2.732.732,0,0,1-.466-1.3l7.479-7.473h-18.3v25.256a4.2,4.2,0,0,1-4.2,4.2h-11.4v6.2a4.2,4.2,0,0,1-4.2,4.213ZM668.2,498.02a2.736,2.736,0,0,0-2.733,2.733v50.84a2.726,2.726,0,0,0,1.694,2.518l26.037,9.272a2.669,2.669,0,0,0,.979.186,2.741,2.741,0,0,0,2.747-2.718l.017-48.176a2.729,2.729,0,0,0-1.448-2.407l-25.957-11.914a2.838,2.838,0,0,0-1.324-.334Zm7.033,1.355,20.882,9.565a4.169,4.169,0,0,1,2.276,3.735v40.5h11.4a2.736,2.736,0,0,0,2.733-2.733l-.005-50.247a2.736,2.736,0,0,0-2.733-2.733H675.649Z" fill="#a340a1" stroke="#a340a1" stroke-width="0.5"/>
      <path id="Path_11093" data-name="Path 11093" d="M676,508.321a.741.741,0,0,1-.232-.037l-5.2-1.732a.735.735,0,1,1,.461-1.395l5.2,1.733a.734.734,0,0,1-.229,1.431Z" fill="#a340a1"/>
    </g>
  </g>
</svg>
